<svg id="Layer_3" enable-background="new 0 0 64 64" height="512" viewBox="0 0 64 64" width="512" xmlns="http://www.w3.org/2000/svg"><path d="m62 1h-4c-.552 0-1 .448-1 1v1h-18v-1c0-.552-.448-1-1-1h-12c-.552 0-1 .448-1 1v1h-18v-1c0-.552-.448-1-1-1h-4c-.552 0-1 .448-1 1v8c0 .552.448 1 1 1h4c.552 0 1-.448 1-1v-1h18v1c0 .552.448 1 1 1h1v14h-1c-.552 0-1 .448-1 1v4c0 .552.448 1 1 1h1v3c0 .552.448 1 1 1h1v3c0 .265.105.52.293.707l2 2c.195.195.451.293.707.293s.512-.098.707-.293l2-2c.188-.187.293-.442.293-.707v-3h1c.552 0 1-.448 1-1v-3h1c.552 0 1-.448 1-1v-4c0-.552-.448-1-1-1h-1v-2h5c1.654 0 3-1.346 3-3 0-.551.449-1 1-1h12c.552 0 1-.448 1-1v-6c0-.552-.448-1-1-1h-12c-1.654 0-3 1.346-3 3 0 .551-.449 1-1 1h-5v-4h1c.552 0 1-.448 1-1v-1h18v1c0 .552.448 1 1 1h4c.552 0 1-.448 1-1v-8c0-.552-.448-1-1-1zm-57 8h-2v-6h2zm2-2v-2h18v2zm26 30.586-1 1-1-1v-2.586h2zm2-4.586h-6v-2h6zm2-4h-10v-2h10zm-2-4h-2v-2h2zm-2-8h2v1h-2zm0 3h2v1h-2zm9 1h-5v-1h5c.359 0 .7-.074 1.019-.19-.004.064-.019.125-.019.19 0 .551-.449 1-1 1zm4-4c-.359 0-.7.074-1.019.19.004-.064.019-.125.019-.19 0-.551.449-1 1-1h11v1zm0-4h11v1h-11c-.359 0-.7.074-1.019.19.004-.064.019-.125.019-.19 0-.551.449-1 1-1zm-4 4c.359 0 .7-.074 1.019-.19-.004.064-.019.125-.019.19 0 .551-.449 1-1 1h-5v-1zm-7-2h-2v-2h-2v12h-2v-14h6zm2-6h-10v-6h10zm2-2v-2h18v2zm22 2h-2v-6h2z"/><path d="m51.428 52.096-19-9c-.271-.128-.585-.128-.856 0l-19 9c-.349.166-.572.518-.572.904s.223.738.572.904l19 9c.136.064.282.096.428.096s.292-.032.428-.096l19-9c.349-.166.572-.518.572-.904s-.223-.738-.572-.904zm-19.428-6.99 6.386 3.025-6.386 3.025-6.386-3.025zm-8.722 4.132 6.386 3.025-7.942 3.762-6.386-3.025zm8.722 11.656-7.942-3.762 7.942-3.762 7.942 3.762zm10.278-4.869-7.942-3.762 6.386-3.025 7.942 3.762z"/></svg>