<svg height="512" viewBox="0 0 512 512" width="512" xmlns="http://www.w3.org/2000/svg"><path d="m264 365.453v-16h-16v16h-16v-16h-16v16a8 8 0 0 0 -8 8h-16v16h16v16h-80v-16h16v-16h-16a8 8 0 0 0 -8-8h-32v-16h-16v16a8 8 0 0 0 -8 8h-16v16h16v16h-16v16h16a8 8 0 0 0 8 8v16h16v-16h16v16h16v-16a8 8 0 0 0 8-8h80a8 8 0 0 0 8 8v16h16v-16h16v16h16v-16a8 8 0 0 0 8-8h64v-16h-64v-16h64v-16h-64a8 8 0 0 0 -8-8zm-152 48h-32v-32h32zm144 0h-32v-32h32z"/><path d="m160 373.453h16v16h-16z"/><path d="m24 477.438h336a8 8 0 0 0 8-8v-144a8 8 0 0 0 -8-8h-182.042l69.808-69.8a16.015 16.015 0 0 0 22.625 0l11.309-11.318a15.882 15.882 0 0 0 4.688-11.328 16.047 16.047 0 0 0 -.593-4.078l69.448-69.445a16.037 16.037 0 0 0 0-22.633l-5.659-5.658 70.5-70.49a16.381 16.381 0 0 1 22.629 0 16 16 0 0 1 0 22.624l-39.6 39.6a32 32 0 1 0 45.254 45.25l45.289-45.289-11.312-11.313-45.289 45.29a16.383 16.383 0 0 1 -22.629 0 16 16 0 0 1 0-22.625l39.6-39.6a32 32 0 0 0 0-45.25c-12.085-12.094-33.168-12.094-45.253 0l-70.5 70.492-5.657-5.656a16.376 16.376 0 0 0 -22.625 0l-69.46 69.46a15.966 15.966 0 0 0 -15.4 4.079l-11.313 11.312a16 16 0 0 0 0 22.626l-79.2 79.2a7.929 7.929 0 0 0 -1.695 2.507l-9.448 22.04h-99.475a8 8 0 0 0 -8 8v144a8 8 0 0 0 8 8.003zm297.305-359.915 22.633 22.625-22.638 22.634-11.316-11.313-11.312 11.312 11.316 11.313-11.314 11.314-11.315-11.314-11.312 11.312 11.314 11.315-11.318 11.318-11.313-11.316-11.312-11.317zm-84.852 73.539 33.938 33.946-11.313 11.312-33.941-33.945zm-89.422 112.055 78.105-78.117 11.317 11.32-78.109 78.1-19.8 8.484zm-115.031 30.321h84.627l-.056.132-10.227 10.23a8 8 0 1 0 11.312 11.312l10.224-10.223 26.72-11.451h197.4v128h-320z"/><path d="m88 389.438h16v16h-16z"/><path d="m232 389.438h16v16h-16z"/></svg>